<svg width="30" height="30" viewBox="0 0 30 30" fill="none" xmlns="http://www.w3.org/2000/svg">
<rect width="30" height="30" rx="7" fill="#284135"/>
<path d="M16.3235 18.1315C16.581 18.1315 17.5896 24.1486 17.6325 24.5598C17.6754 24.971 18.9844 24.8412 19.1776 24.8195C19.3369 24.8017 19.5692 18.6881 19.6698 16.097M16.3235 18.1315C16.1324 18.1315 15.3622 18.5249 14.0918 18.7632M16.3235 18.1315L17.0746 17.7203M7.67552 11.4651C7.67552 11.4651 8.59828 11.2054 8.85577 11.1838C8.94604 11.1762 9.50581 11.1739 10.2077 11.1714M7.67552 11.4651C7.67552 11.4651 7.30585 11.6154 6.89665 11.9413M7.67552 11.4651C7.73564 11.5951 7.73992 11.7898 7.78998 11.9413C7.84004 12.0928 8.03605 12.2443 8.03605 12.2443M6.43091 12.3906C6.19914 12.6647 5.99748 13.0038 5.89442 13.4131C5.55105 14.7767 5.74421 15.6641 5.55107 17.071C5.35793 18.4778 5.76568 24.2135 5.89442 24.6897C6.02315 25.1658 7.09613 25.036 7.18196 24.6897C7.26779 24.3434 8.89869 18.3263 8.89869 18.3263C8.89869 18.3263 9.59787 18.6442 10.7227 18.8223M6.43091 12.3906C6.43091 12.3906 7.18198 12.7421 7.31074 12.7205C7.43949 12.6989 7.04262 13.722 7.35365 14.2139C7.63032 14.6515 7.97643 14.8853 8.49099 14.8849C8.90367 14.8846 9.32789 14.3871 9.45665 14.452C9.5854 14.517 9.89947 14.9997 9.90729 15.1446M6.43091 12.3906C6.57978 12.2145 6.74107 12.0652 6.89665 11.9413M9.90729 15.1446C9.84291 16.4 10.4776 16.2918 10.3794 16.4C10.2812 16.5082 10.0844 17.0914 10.1863 17.5255C10.2832 17.9386 10.8086 18.4129 10.8086 18.4129L10.7227 18.8223M9.90729 15.1446L11.0232 15.7601M10.7227 18.8223C11.0827 18.8793 11.4863 18.922 11.9244 18.9354M8.12618 12.4391C8.12618 12.4391 7.72096 13.0345 7.8043 13.4348C7.88726 13.8332 8.23348 14.1057 8.49099 14.2139C8.7485 14.3222 9.00912 14.3608 9.28497 14.2085C9.57542 14.0482 9.84291 13.4348 9.84291 13.4348M8.12618 12.4391C8.12618 12.4391 8.30994 13.1654 8.68412 13.3265C9.06201 13.4893 9.71416 13.1101 9.71416 13.1101L9.84291 13.4348M8.12618 12.4391L8.03605 12.2443M14.4995 12.8071C14.1562 11.963 13.4909 11.1188 13.4909 11.1188M14.4995 12.8071C14.6712 13.2183 14.7785 13.0668 14.6927 13.6296C14.6068 14.1923 14.3209 14.3135 13.8987 14.4087C13.5456 14.4884 13.2673 14.4353 12.9974 14.1923C12.742 13.9624 12.6755 13.3698 12.6755 13.3698M14.4995 12.8071C14.3627 13.164 14.0727 13.4249 13.7055 13.5213C13.3842 13.6058 12.8686 13.3698 12.8686 13.3698M14.4995 12.8071C14.309 12.8776 14.1349 12.9402 13.9554 13.0027M13.4909 11.1188C13.3316 11.1533 12.1097 11.1634 10.9588 11.1685M13.4909 11.1188C13.5462 11.1069 13.618 11.0217 13.7055 10.884M10.2077 11.1714C10.4867 11.4651 8.6412 11.6167 8.68412 12.0279C8.72704 12.4391 9.09184 12.4391 9.09184 12.4391C9.09184 12.4391 9.09378 12.4407 9.09732 12.4438M10.2077 11.1714L10.2823 11.1711C10.4988 11.1703 10.7273 11.1695 10.9588 11.1685M9.09732 12.4438C9.13622 12.4773 9.36801 12.6851 9.32789 12.8504C9.28641 13.0212 9.13744 13.107 8.96309 13.1101C8.71172 13.1146 8.46953 12.872 8.57682 12.5906C8.62732 12.4582 8.82989 12.4408 9.09732 12.4438ZM9.09732 12.4438C9.39816 12.4471 9.78107 12.476 10.1219 12.3958C10.7657 12.2443 11.0384 11.8443 10.9483 11.1838M10.9588 11.1685C10.9588 11.1685 10.9609 11.1768 10.965 11.1921M10.9588 11.1685L10.9483 11.1838M10.965 11.1921C11.0017 11.3272 11.201 12.0058 11.5596 12.2443C11.8945 12.467 12.2892 12.4824 12.5682 12.4391C12.8472 12.3958 12.9974 11.9846 12.9974 11.898C12.9974 11.8114 12.8686 11.6167 12.4609 11.5517C12.0613 11.4881 11.2489 11.3284 10.965 11.1921ZM10.965 11.1921C10.9592 11.1893 10.9537 11.1865 10.9483 11.1838M9.84291 13.4348L10.2812 13.7594M10.2812 13.7594C10.3534 14.2105 10.7679 14.5176 11.2163 14.452C11.6306 14.3914 11.9244 13.6404 11.9244 13.6404M10.2812 13.7594C10.1834 14.1356 10.2455 14.43 10.4867 14.7334C10.7379 15.0495 11.0313 15.1859 11.4309 15.1446C11.7556 15.1111 11.9963 15.0179 12.1605 14.7334C12.3784 14.3558 11.9244 13.6404 11.9244 13.6404M11.9244 13.6404L12.1605 13.3698H12.6755M19.6698 16.097C19.6698 16.097 19.242 15.7074 19.0703 15.7723C18.8986 15.8372 18.8557 16.1403 18.448 16.097C18.0403 16.0537 18.1338 15.7681 17.8686 15.7074C17.6303 15.6528 17.4848 15.826 17.2463 15.7723C16.9695 15.71 16.8815 15.3611 16.6454 15.3611C16.4094 15.3611 16.3021 15.5775 15.7442 15.3611C15.1862 15.1446 15.5939 14.6468 15.2721 14.6901C14.9502 14.7334 15.036 14.2789 14.7356 14.452C14.4352 14.6252 13.7308 15.2112 13.5339 15.1013L13.0296 14.82M19.6698 16.097C19.6796 15.844 19.6882 15.6245 19.6953 15.4477M19.1347 16.3134L19.0274 18.1964M14.1776 18.1964C15.0317 18.1141 15.5037 17.9384 16.3235 17.4173M13.0296 14.82C12.8759 14.7342 12.5682 14.3005 12.5253 14.5386C12.4824 14.7767 12.1605 15.5342 12.1605 15.5342C11.9841 15.608 11.7957 15.8526 11.7957 15.8526M13.0296 14.82C13.0296 14.82 12.8145 15.3329 12.8686 15.6641C12.9217 15.9889 13.2076 16.0782 13.2764 16.4C13.3258 16.6314 13.1831 16.7888 13.2764 17.006C13.3682 17.22 13.6203 17.2005 13.7055 17.4173C13.8195 17.707 13.4051 18.0666 13.6197 18.2397C13.8343 18.4129 14.0918 18.7632 14.0918 18.7632M14.0918 18.7632C13.8771 18.8034 13.6481 18.8393 13.4051 18.868M11.7957 15.8526C11.7957 15.8526 11.4309 15.9671 11.2807 15.9022C11.1305 15.8372 11.0232 15.7601 11.0232 15.7601M11.7957 15.8526C11.7957 15.8526 12.5253 15.9671 12.6755 16.2701C12.8257 16.5731 12.0961 16.7679 11.8815 16.9411C11.6669 17.1142 13.0296 17.1142 13.1476 17.5255C13.2656 17.9367 12.5038 17.8501 12.4824 18.0882C12.4717 18.2065 12.9141 18.0968 13.146 18.2614C13.3808 18.4279 13.4051 18.868 13.4051 18.868M13.4051 18.868C13.1486 18.8984 12.8767 18.9209 12.5897 18.9324C12.3604 18.9415 12.1383 18.9419 11.9244 18.9354M11.0232 15.7601C11.0232 15.7601 10.7191 15.9353 10.7227 16.1186C10.7276 16.3643 11.2807 16.2052 11.2807 16.4C11.2807 16.5948 10.7421 16.8432 10.8086 17.2008C10.8841 17.6069 11.7742 17.5904 11.7099 17.7419C11.6455 17.8934 11.2743 18.1052 11.388 18.348C11.4843 18.5538 11.9244 18.4562 11.9244 18.5644V18.9354M12.6755 13.3698H12.8686M12.8686 13.3698L13.5913 13.1269M13.5913 13.1269L13.6412 13.1101M13.5913 13.1269C13.6109 13.1262 13.628 13.121 13.6412 13.1101M13.5913 13.1269C13.4454 13.1314 13.1552 12.8783 13.212 12.7638C13.2764 12.6339 13.4143 12.5107 13.5983 12.4824C13.7816 12.4543 13.9652 12.4669 14.0489 12.6339C14.1074 12.7507 14.0535 12.9002 13.9554 13.0027M13.6412 13.1101C13.7503 13.0734 13.8537 13.0381 13.9554 13.0027M13.6412 13.1101C13.7492 13.1464 13.8693 13.0926 13.9554 13.0027M13.7055 10.884L14.9716 12.569L15.83 12.2443L16.8171 12.6339C16.8171 12.6339 17.0543 12.6732 17.3719 12.7039M13.7055 10.884C13.993 10.4319 14.4509 9.41411 15.0548 8.56484M17.3719 12.7039C17.8364 12.7488 18.4728 12.7753 18.7914 12.6339C19.3216 12.3986 20.6482 10.4102 21.0313 10.3204M17.3719 12.7039C17.161 12.4801 16.9879 12.2002 16.8907 12.0366M17.3719 12.7039C17.5655 12.9093 17.7909 13.0674 18.0188 13.0452C18.6841 12.9802 18.7903 13.4174 19.3707 13.543C19.6312 13.5994 20.0445 13.6512 20.0445 13.6512M21.0313 10.3204C21.0359 10.3193 21.0403 10.3185 21.0445 10.318C21.0563 10.3166 21.0664 10.3153 21.0749 10.3142M21.0313 10.3204C21.0484 10.3179 21.063 10.3159 21.0749 10.3142M21.0313 10.3204C20.7888 10.3555 20.0606 10.4723 19.7141 10.6427C19.0532 10.9676 19.035 11.6976 18.3407 11.9413C17.8492 12.1138 17.1341 12.2164 16.8907 12.0366M21.0749 10.3142C21.127 10.3077 21.1212 10.3078 21.0749 10.3142ZM16.8907 12.0366C16.8558 12.0109 16.8306 11.9793 16.8171 11.9413C16.7867 11.8553 16.8167 11.9123 16.8907 12.0366ZM20.0445 13.6512C20.4005 12.5191 20.9306 11.1838 21.0445 11.1838C21.1517 11.1838 21.7608 11.5212 22.3965 11.7011M20.0445 13.6512C19.9852 13.8396 19.9308 14.0223 19.8839 14.1923M19.7785 14.82C19.7785 14.82 19.7632 14.8167 19.7391 14.8102M19.7391 14.8102C19.6747 14.7929 19.5471 14.7527 19.478 14.6901C19.3222 14.5489 19.3278 14.1707 19.3278 14.1707M19.7391 14.8102C19.7257 14.8886 19.7171 14.9574 19.7141 15.0148C19.71 15.0906 19.7036 15.2397 19.6953 15.4477M19.7391 14.8102C19.7678 14.6418 19.8185 14.4294 19.8839 14.1923M19.3278 14.1707C19.3278 14.1707 18.9061 14.7183 18.5768 14.6252C18.1965 14.5177 18.2763 13.6512 18.2763 13.6512M19.3278 14.1707L19.8839 14.1923M19.3278 14.1707C19.3278 14.1707 19.1322 13.8687 18.9416 13.7594C18.7128 13.6283 18.2763 13.6512 18.2763 13.6512M18.2763 13.6512C18.2763 13.6512 17.8457 14.577 17.4394 14.4087C17.0608 14.252 17.2463 13.3698 17.2463 13.3698M18.2763 13.6512L17.2463 13.3698M17.2463 13.3698C17.2463 13.3698 16.5381 14.0841 16.3021 14.0408C16.066 13.9975 16.1881 13.3153 16.0875 12.8504M17.2463 13.3698C17.2463 13.3698 16.5568 13.0532 16.0875 12.8504M16.0875 12.8504C15.7205 12.727 14.9287 13.7161 15.1433 14.0408C15.3579 14.3654 15.5296 13.5863 15.6798 13.7594C15.83 13.9326 15.5808 14.7537 16.0017 14.8633C16.3247 14.9473 16.6025 14.6252 16.8171 14.452C17.0317 14.2789 16.954 15.0241 17.2463 15.1013C17.5363 15.178 17.8042 14.8633 17.933 14.755C18.0617 14.6468 18.1093 15.3075 18.4051 15.3827C18.714 15.4613 18.8192 14.97 19.1347 15.0148C19.4077 15.0536 19.6953 15.4477 19.6953 15.4477M17.6325 21.1617C17.6882 22.6614 17.7331 23.4746 18.2763 23.9971M18.2763 22.9581L18.5768 23.8023M6.34508 15.0364C6.03764 16.8107 5.77303 19.6087 5.89442 19.625M6.49529 17.8285C6.35474 18.6775 6.3116 19.0887 6.34508 19.625M6.70988 19.1271V19.7548M6.49529 23.0231L6.34508 23.6724M6.96739 22.6551L6.49529 24.5382M8.12618 17.4173C8.59046 17.82 8.88089 17.9783 9.45665 18.1315M8.94161 17.4606C9.22243 17.6406 9.36058 17.7192 9.54248 17.7852M15.0548 8.56484C15.2669 8.26648 15.497 7.98893 15.7441 7.76401L15.7678 7.74244C15.825 7.69044 15.8804 7.63994 15.9346 7.59086M15.0548 8.56484L15.3136 9.07348M15.6798 11.2703C15.6798 11.2703 16.0335 11.7029 16.3236 11.6599C16.5052 11.6331 16.7234 11.4107 16.7234 11.4107M15.6798 11.2703L15.5945 9.92842M15.6798 11.2703C15.6798 11.2703 15.1231 11.3021 14.9716 11.0539C14.7609 10.7085 15.5725 10.2106 15.5725 10.2106M17.8042 6.36573C17.853 6.34813 17.903 6.33084 17.9544 6.31386C18.0556 6.28045 18.1638 6.25101 18.2763 6.22518M17.8042 6.36573C17.5417 6.46058 17.3168 6.56475 17.1111 6.68181M17.8042 6.36573C17.8042 6.36573 18.0003 7.12691 18.1905 7.59086C18.3853 8.06598 18.8077 8.24575 18.7914 8.75964C18.7759 9.24377 18.1905 9.84184 18.1905 9.84184M17.8042 6.36573L17.3255 7.30948M17.1111 6.68181C16.6908 6.92095 16.3509 7.21386 15.9346 7.59086M17.1111 6.68181L17.3255 7.30948M18.1905 9.84184L17.8793 10.3629M18.1905 9.84184L18.0131 9.32238M20.0691 6.0722C20.2219 6.08099 20.3205 6.09775 20.3364 6.11906C20.3525 6.14081 20.4513 6.07105 20.5939 5.95713M20.0691 6.0722C19.6716 6.04934 18.9073 6.08032 18.2763 6.22518M20.0691 6.0722C20.0532 6.04635 20.0445 6.03248 20.0445 6.03248M20.0691 6.0722C20.1977 6.28155 20.7963 7.27717 21.0445 8.06703M18.2763 6.22518L18.2654 6.81167M19.1991 10.0583L19.5853 8.75964L19.2334 8.24018M19.1991 10.0583L18.5392 10.2106M19.1991 10.0583C19.1991 10.0583 19.2523 10.4775 19.0703 10.5777C18.8497 10.6993 18.5392 10.2106 18.5392 10.2106M17.8793 10.3629L18.5392 10.2106M17.8793 10.3629L17.6347 10.7725M18.5392 10.2106C18.5392 10.2106 18.6486 10.9192 18.3407 11.0539C18.0687 11.1729 17.6347 10.7725 17.6347 10.7725M17.5682 10.884L17.6347 10.7725M17.5682 10.884C17.5682 10.884 17.7382 11.3553 17.5682 11.5517C17.3483 11.8058 16.7234 11.4107 16.7234 11.4107M17.5682 10.884L16.7234 11.4107M17.5682 10.884L17.1111 10.5777M19.2334 8.24018L19.7141 7.76401C19.7141 7.76401 19.5401 7.51667 19.3707 7.46099C19.1825 7.39911 18.8928 7.53876 18.8139 7.57989M19.2334 8.24018L18.7935 7.59086M19.2334 8.24018C19.2334 8.24018 20.499 7.85276 20.2077 7.46099C20.0517 7.25128 19.5853 7.22291 19.5853 7.22291C19.5853 7.22291 19.5265 6.75396 19.3064 6.61687C19.0244 6.44126 18.2654 6.81167 18.2654 6.81167M18.7935 7.59086C18.7935 7.59086 18.7401 7.51157 18.7055 7.46099C18.5763 7.27199 18.5982 7.30948 18.3675 6.98211M18.7935 7.59086C18.7935 7.59086 18.8008 7.58674 18.8139 7.57989M18.7935 7.59086C18.7935 7.59086 18.801 7.58704 18.8139 7.57989M18.8139 7.57989C18.9035 7.53041 19.2548 7.32138 19.1991 7.11469C19.1301 6.85896 18.5284 6.77257 18.3675 6.98211M18.3675 6.98211L18.2654 6.81167M21.0445 8.06703C20.9214 8.16041 20.8721 8.28121 20.8943 8.43498C20.9192 8.60659 21.034 8.82115 21.1948 8.75964C21.2322 8.7453 21.2806 8.70291 21.2806 8.70291M21.0445 8.06703H21.5596M21.5596 8.06703C21.6548 7.94324 21.947 8.26253 21.8171 8.3484L21.4895 8.56484M21.5596 8.06703C21.2591 7.13633 20.5939 5.95713 20.5939 5.95713M20.5939 5.95713C21.019 5.61755 21.8335 4.88556 22.0102 5.01522C22.2462 5.18837 21.9458 6.66016 22.0102 7.22291C22.0547 7.6114 23.2445 8.68066 23.963 9.40532M21.2806 8.70291C21.2806 8.70291 22.6754 10.2106 22.9544 10.318C23.2334 10.4254 22.3965 11.7011 22.3965 11.7011M21.2806 8.70291L21.4895 8.56484M22.3965 11.7011C22.5473 11.7437 22.6996 11.7775 22.8471 11.7958M21.2806 10.6427L22.1819 11.0539M21.8171 10.4912L22.3106 10.7725M23.963 9.40532C23.963 9.40532 23.3407 10.2098 23.2334 10.2106C23.1261 10.2114 21.4895 8.56484 21.4895 8.56484M23.963 9.40532C24.0401 9.48307 24.1117 9.55685 24.176 9.6254M24.176 9.6254C24.3803 9.84344 24.5096 10.0085 24.4994 10.0799C24.4786 10.2271 24.4223 10.553 24.279 10.884M24.176 9.6254C24.176 9.6254 23.4694 10.318 23.5767 10.4912C23.684 10.6643 24.279 10.884 24.279 10.884M24.279 10.884C24.2186 11.0234 24.1427 11.1637 24.0476 11.292M24.0476 11.292C23.9036 11.4862 23.7153 11.6527 23.4694 11.7465C23.2888 11.8155 23.0737 11.8239 22.8471 11.7958M24.0476 11.292C24.0476 11.292 23.4694 10.884 23.3407 10.884C23.2119 10.884 22.8471 11.7958 22.8471 11.7958M15.9346 7.59086L16.0433 7.77773M17.1111 9.75526C17.1111 9.75526 17.5664 10.0753 17.8042 9.92842C18.0161 9.79758 18.0131 9.32238 18.0131 9.32238M17.1111 9.75526L16.893 9.32238M17.1111 9.75526V10.5777M18.0131 9.32238L17.8504 8.84621M17.8504 8.84621L17.6449 9.0843M17.8504 8.84621L17.3772 7.46099M16.893 9.32238L16.5811 8.70291L16.5008 8.56484M16.893 9.32238C16.893 9.32238 16.3165 9.14991 16.1519 8.84621C15.9881 8.54413 16.1519 7.9646 16.1519 7.9646M16.893 9.32238H17.0317M16.1519 7.9646L16.0433 7.77773M16.1519 7.9646L16.3021 8.22301M16.0433 7.77773L15.6403 9.32238M15.6403 9.32238L15.5725 9.58211M15.6403 9.32238L16.3021 10.2106L16.0446 11.1188L17.1111 10.5777M15.5725 9.58211L15.3136 9.07348M15.5725 9.58211L15.5945 9.92842M17.0317 9.32238C17.0317 9.32238 17.2987 9.39755 17.4394 9.32238C17.5474 9.26469 17.6449 9.0843 17.6449 9.0843M17.0317 9.32238C17.0317 9.32238 17.0046 9.05494 17.1111 8.95443C17.2676 8.80659 17.6449 9.0843 17.6449 9.0843M16.5008 8.56484C16.5008 8.56484 16.8637 8.56753 17.0317 8.43498C17.2491 8.26354 17.2697 7.76401 17.2697 7.76401M16.5008 8.56484L16.3021 8.22301M17.3772 7.46099L17.3255 7.30948M17.3772 7.46099L17.2697 7.76401M17.2697 7.76401C17.2697 7.76401 17.1335 7.53777 17.0317 7.59086C16.9611 7.62767 16.9475 7.77773 16.9475 7.77773M16.3021 8.22301C16.3021 8.22301 16.6763 8.22417 16.8171 8.06703C16.8996 7.97495 16.9475 7.77773 16.9475 7.77773M16.3021 8.22301C16.3021 8.22301 16.2714 7.88462 16.4094 7.76401C16.5682 7.62516 16.9475 7.77773 16.9475 7.77773M15.3136 9.07348C15.3136 9.07348 14.7636 9.58857 14.9716 9.84184C15.1283 10.0325 15.5945 9.92842 15.5945 9.92842M6.89665 11.9413C6.89665 11.9413 7.15117 12.1758 7.35365 12.2443C7.6063 12.3298 7.78284 12.266 8.03605 12.2443M14.5425 17.5904C14.697 17.5268 14.8214 17.491 15.0575 17.3784C15.2935 17.2658 15.5939 17.1575 15.5939 17.1575M11.0232 13.1101C10.7798 13.0887 10.5252 13.1914 10.4867 13.4348C10.4436 13.7073 10.7498 13.9015 11.0232 13.8893C11.2559 13.8789 11.4826 13.756 11.4953 13.5213C11.5085 13.276 11.2658 13.1315 11.0232 13.1101ZM19.7141 9.75526C20.5081 9.40532 20.272 8.43498 20.3364 8.3484C20.4007 8.26182 20.8289 8.74336 20.8943 9.10594C20.9637 9.48991 20.9158 10.0583 20.5939 10.0583C20.272 10.0583 18.9201 10.1052 19.7141 9.75526Z" stroke="#FFFEEB" stroke-width="0.4"/>
</svg>
