<svg width="16" height="16" viewBox="0 0 16 16" fill="none" xmlns="http://www.w3.org/2000/svg">
<path d="M9.78484 8L13.8244 3.96056C14.058 3.72694 14.058 3.34782 13.8244 3.11383L12.8858 2.17522C12.6521 1.94159 12.273 1.94159 12.039 2.17522L7.99981 6.21503L3.96025 2.17559C3.72662 1.94197 3.34749 1.94197 3.11349 2.17559L2.17522 3.11383C1.94159 3.34745 1.94159 3.72657 2.17522 3.96056L6.21478 8L2.17522 12.0394C1.94159 12.2731 1.94159 12.6522 2.17522 12.8862L3.11386 13.8248C3.34749 14.0584 3.72662 14.0584 3.96062 13.8248L7.99981 9.78497L12.0394 13.8244C12.273 14.058 12.6521 14.058 12.8861 13.8244L13.8248 12.8858C14.0584 12.6522 14.0584 12.2731 13.8248 12.0391L9.78484 8Z" fill="#FFFEEB"/>
</svg>
