<svg width="24" height="24" viewBox="0 0 24 24" fill="none" xmlns="http://www.w3.org/2000/svg">
<path d="M14.6773 12L20.7366 5.94085C21.087 5.59041 21.087 5.02173 20.7366 4.67074L19.3286 3.26282C18.9782 2.91239 18.4095 2.91239 18.0585 3.26282L11.9997 9.32254L5.94037 3.26339C5.58993 2.91295 5.02123 2.91295 4.67023 3.26339L3.26283 4.67074C2.91239 5.02117 2.91239 5.58985 3.26283 5.94085L9.32218 12L3.26283 18.0592C2.91239 18.4096 2.91239 18.9783 3.26283 19.3293L4.67079 20.7372C5.02123 21.0876 5.58993 21.0876 5.94094 20.7372L11.9997 14.6775L18.0591 20.7366C18.4095 21.087 18.9782 21.087 19.3292 20.7366L20.7372 19.3287C21.0876 18.9783 21.0876 18.4096 20.7372 18.0586L14.6773 12Z" fill="#FFFEEB"/>
</svg>
