<svg width="30" height="31" viewBox="0 0 30 31" fill="none" xmlns="http://www.w3.org/2000/svg">
<path d="M12.9556 12.795L13.2987 18.7012C13.3181 19.0357 13.5917 19.2969 13.9226 19.2969H16.0773C16.2367 19.2969 16.3901 19.2352 16.5061 19.1245C16.622 19.0138 16.6918 18.8624 16.7012 18.7012L17.0443 12.795C17.0654 12.4315 16.78 12.125 16.4204 12.125H13.5794C13.2199 12.125 12.9345 12.4315 12.9556 12.795ZM17.1875 22.25C17.1875 23.4732 16.2081 24.4648 15 24.4648C13.7919 24.4648 12.8125 23.4732 12.8125 22.25C12.8125 21.0268 13.7919 20.0352 15 20.0352C16.2081 20.0352 17.1875 21.0268 17.1875 22.25ZM17.1655 3.26483C16.2054 1.57992 13.7964 1.57686 12.8345 3.26483L0.337352 25.2038C-0.622127 26.8878 0.57907 29 2.50282 29H27.4969C29.4169 29 30.6237 26.891 29.6624 25.2038L17.1655 3.26483ZM2.77037 25.9942L14.7293 5.00628C14.8496 4.79524 15.1504 4.79524 15.2707 5.00628L27.2296 25.9942C27.3499 26.2051 27.1995 26.4687 26.959 26.4687H3.04105C2.80058 26.4687 2.65022 26.2052 2.77037 25.9942Z" fill="#FFFEEB"/>
</svg>
