<svg width="22" height="16" viewBox="0 0 22 16" fill="none" xmlns="http://www.w3.org/2000/svg">
<path d="M19.9048 0H2.09524C0.93807 0 0 0.955126 0 2.13333V13.8667C0 15.0449 0.93807 16 2.09524 16H19.9048C21.0619 16 22 15.0449 22 13.8667V2.13333C22 0.955126 21.0619 0 19.9048 0Z" fill="#E00000"/>
<path fill-rule="evenodd" clip-rule="evenodd" d="M0 10.6667H22V13.8667C22 15.0449 21.0619 16 19.9048 16H2.09524C0.93807 16 0 15.0449 0 13.8667V10.6667Z" fill="#FFCF00"/>
<path fill-rule="evenodd" clip-rule="evenodd" d="M0 2.13333C0 0.955126 0.93807 0 2.09524 0H19.9048C21.0619 0 22 0.955126 22 2.13333V5.33333H0V2.13333Z" fill="black"/>
</svg>
