<svg width="30" height="30" viewBox="0 0 30 30" fill="none" xmlns="http://www.w3.org/2000/svg">
<path d="M15 1.5C7.54468 1.5 1.5 7.54686 1.5 15C1.5 22.4575 7.54468 28.5 15 28.5C22.4553 28.5 28.5 22.4575 28.5 15C28.5 7.54686 22.4553 1.5 15 1.5ZM15 25.8871C8.98314 25.8871 4.1129 21.0189 4.1129 15C4.1129 8.98515 8.98335 4.1129 15 4.1129C21.0146 4.1129 25.8871 8.9833 25.8871 15C25.8871 21.0168 21.0189 25.8871 15 25.8871ZM17.2863 20.2258C17.2863 21.4865 16.2607 22.5121 15 22.5121C13.7393 22.5121 12.7137 21.4865 12.7137 20.2258C12.7137 18.9651 13.7393 17.9395 15 17.9395C16.2607 17.9395 17.2863 18.9651 17.2863 20.2258ZM12.8569 8.71809L13.227 16.1213C13.2444 16.469 13.5314 16.7419 13.8794 16.7419H16.1206C16.4686 16.7419 16.7556 16.469 16.773 16.1213L17.1431 8.71809C17.1618 8.34499 16.8643 8.03226 16.4907 8.03226H13.5093C13.1357 8.03226 12.8382 8.34499 12.8569 8.71809Z" fill="#FFFEEB"/>
</svg>
