<svg width="60" height="60" viewBox="0 0 60 60" fill="none" xmlns="http://www.w3.org/2000/svg">
<rect width="60" height="60" rx="10" fill="#FFFEEB"/>
<path d="M44.4316 26.1797C44.6602 25.998 45 26.168 45 26.4551V38.4375C45 39.9902 43.7402 41.25 42.1875 41.25H17.8125C16.2598 41.25 15 39.9902 15 38.4375V26.4609C15 26.168 15.334 26.0039 15.5684 26.1855C16.8809 27.2051 18.6211 28.5 24.5977 32.8418C25.834 33.7441 27.9199 35.6426 30 35.6309C32.0918 35.6484 34.2187 33.709 35.4082 32.8418C41.3848 28.5 43.1191 27.1992 44.4316 26.1797ZM30 33.75C31.3594 33.7734 33.3164 32.0391 34.3008 31.3242C42.0762 25.6816 42.668 25.1895 44.4609 23.7832C44.8008 23.5195 45 23.1094 45 22.6758V21.5625C45 20.0098 43.7402 18.75 42.1875 18.75H17.8125C16.2598 18.75 15 20.0098 15 21.5625V22.6758C15 23.1094 15.1992 23.5137 15.5391 23.7832C17.332 25.1836 17.9238 25.6816 25.6992 31.3242C26.6836 32.0391 28.6406 33.7734 30 33.75Z" fill="#252422"/>
</svg>
