<svg width="30" height="30" viewBox="0 0 30 30" fill="none" xmlns="http://www.w3.org/2000/svg">
<path d="M28.25 12.3025C25.6451 12.3087 23.104 11.504 20.9858 10.0021V20.4767C20.9851 22.4167 20.3865 24.3102 19.27 25.9041C18.1535 27.498 16.5723 28.7163 14.7379 29.396C12.9036 30.0758 10.9034 30.1846 9.00487 29.708C7.10636 29.2313 5.4 28.1919 4.11396 26.7288C2.82792 25.2656 2.0235 23.4484 1.80826 21.5201C1.59303 19.5919 1.97723 17.6445 2.90949 15.9384C3.84176 14.2323 5.27766 12.8487 7.02519 11.9728C8.77272 11.0968 10.7486 10.7702 12.6886 11.0366V16.3049C11.8008 16.0283 10.8475 16.0366 9.96487 16.3287C9.08219 16.6208 8.31525 17.1816 7.77357 17.9312C7.2319 18.6808 6.94319 19.5807 6.94867 20.5025C6.95415 21.4243 7.25354 22.3208 7.8041 23.064C8.35465 23.8072 9.1282 24.3591 10.0143 24.6409C10.9004 24.9226 11.8537 24.9198 12.7381 24.6329C13.6225 24.3459 14.3927 23.7895 14.9388 23.0431C15.4849 22.2967 15.779 21.3985 15.779 20.4767V0H20.9858C20.9822 0.435544 21.0191 0.870494 21.0959 1.29935C21.2768 2.25671 21.653 3.16745 22.2015 3.97585C22.7499 4.78425 23.4591 5.47333 24.2857 6.00093C25.4616 6.7711 26.8403 7.1816 28.25 7.18131V12.3025Z" fill="#F1F1EC"/>
</svg>
