<svg width="60" height="60" viewBox="0 0 60 60" fill="none" xmlns="http://www.w3.org/2000/svg">
<rect width="60" height="60" rx="10" fill="#FFFEEB"/>
<path d="M16.5 42.1875C16.5 43.7402 17.7958 45 19.3929 45H40.6071C42.2042 45 43.5 43.7402 43.5 42.1875V26.25H16.5V42.1875ZM35.7857 30.7031C35.7857 30.3164 36.1112 30 36.5089 30H38.9196C39.3174 30 39.6429 30.3164 39.6429 30.7031V33.0469C39.6429 33.4336 39.3174 33.75 38.9196 33.75H36.5089C36.1112 33.75 35.7857 33.4336 35.7857 33.0469V30.7031ZM35.7857 38.2031C35.7857 37.8164 36.1112 37.5 36.5089 37.5H38.9196C39.3174 37.5 39.6429 37.8164 39.6429 38.2031V40.5469C39.6429 40.9336 39.3174 41.25 38.9196 41.25H36.5089C36.1112 41.25 35.7857 40.9336 35.7857 40.5469V38.2031ZM28.0714 30.7031C28.0714 30.3164 28.3969 30 28.7946 30H31.2054C31.6031 30 31.9286 30.3164 31.9286 30.7031V33.0469C31.9286 33.4336 31.6031 33.75 31.2054 33.75H28.7946C28.3969 33.75 28.0714 33.4336 28.0714 33.0469V30.7031ZM28.0714 38.2031C28.0714 37.8164 28.3969 37.5 28.7946 37.5H31.2054C31.6031 37.5 31.9286 37.8164 31.9286 38.2031V40.5469C31.9286 40.9336 31.6031 41.25 31.2054 41.25H28.7946C28.3969 41.25 28.0714 40.9336 28.0714 40.5469V38.2031ZM20.3571 30.7031C20.3571 30.3164 20.6826 30 21.0804 30H23.4911C23.8888 30 24.2143 30.3164 24.2143 30.7031V33.0469C24.2143 33.4336 23.8888 33.75 23.4911 33.75H21.0804C20.6826 33.75 20.3571 33.4336 20.3571 33.0469V30.7031ZM20.3571 38.2031C20.3571 37.8164 20.6826 37.5 21.0804 37.5H23.4911C23.8888 37.5 24.2143 37.8164 24.2143 38.2031V40.5469C24.2143 40.9336 23.8888 41.25 23.4911 41.25H21.0804C20.6826 41.25 20.3571 40.9336 20.3571 40.5469V38.2031ZM40.6071 18.75H37.7143V15.9375C37.7143 15.4219 37.2804 15 36.75 15H34.8214C34.2911 15 33.8571 15.4219 33.8571 15.9375V18.75H26.1429V15.9375C26.1429 15.4219 25.7089 15 25.1786 15H23.25C22.7196 15 22.2857 15.4219 22.2857 15.9375V18.75H19.3929C17.7958 18.75 16.5 20.0098 16.5 21.5625V24.375H43.5V21.5625C43.5 20.0098 42.2042 18.75 40.6071 18.75Z" fill="#252422"/>
</svg>
